<?xml version="1.0" encoding="UTF-8"?>
<svg id="Layer_1" data-name="Layer 1" xmlns="http://www.w3.org/2000/svg" viewBox="0 0 64 64">
  <defs>
    <style>
      .cls-1 {
        fill: #fff;
      }

      .cls-2 {
        fill: #406eb5;
      }
    </style>
  </defs>
  <path class="cls-2" d="M21.48,46.46c-2.24,0-3.9-1.39-5.08-4.24l-7.78-18.79v.03S1.62,6.57,1.62,6.57c-.17-.47-.41-3.07-.56-5.57l13.08.02c.49-.01.95-.02,1.41-.02,18.72,0,36.07,9.46,46.42,25.3.85,1.3,1.17,2.22.98,2.82-.17.57-.89,1.11-2.2,1.66l-1.49.63c-2.02.85-3.24,1.37-3.97,1.37s-1.25-.66-2.83-2.75c-.38-.5-.8-1.06-1.29-1.69-7.04-9.04-16.55-14.69-28.28-16.79-.41-.08-.86-.12-1.33-.12-1.51,0-2.96.42-3.88,1.11-2.28,1.72-1.2,4.33-.48,6.06,3.17,7.6,6.31,15.17,9.41,22.73,1.15,2.77.97,3.17-1.84,4.36-1.21.51-2.32.77-3.29.77Z"/>
  <path class="cls-1" d="M2.12,2l12.01.02h.03s.03,0,.03,0c.45-.01.9-.02,1.36-.02,18.38,0,35.42,9.29,45.58,24.84.99,1.52.87,1.98.87,1.99,0,0-.14.41-1.62,1.03-.54.23-1.04.44-1.5.63-1.7.72-3.05,1.29-3.61,1.29-.32-.12-1.21-1.31-2-2.35-.38-.5-.8-1.07-1.3-1.71-7.19-9.24-16.92-15.02-28.88-17.16-.48-.09-.99-.13-1.52-.13-1.75,0-3.38.48-4.48,1.31-2.91,2.18-1.54,5.48-.81,7.25l.02.05c3.14,7.52,6.29,15.14,9.39,22.67.64,1.54.59,1.94.58,1.99-.03.06-.28.38-1.88,1.06-1.09.46-2.06.69-2.9.69-1.14,0-2.81-.38-4.16-3.62l-6.85-16.54-1.86-4.43-2.12-5.11L2.56,6.24c-.13-.5-.3-2.3-.44-4.24M0,0s.31,6.03.69,6.95c2.64,6.38,5.28,12.76,7.93,19.14v-.03s6.86,16.54,6.86,16.54c1.34,3.24,3.34,4.86,6,4.86,1.11,0,2.34-.28,3.68-.85,3.31-1.39,3.74-2.36,2.38-5.66-3.11-7.56-6.25-15.13-9.39-22.68-.71-1.72-1.54-3.67.14-4.93.81-.61,2.09-.91,3.28-.91.4,0,.79.03,1.15.1,11.23,2.01,20.57,7.3,27.67,16.42,2.65,3.42,3.37,4.83,4.91,4.83,1.14,0,2.72-.77,5.85-2.08,3.22-1.36,3.65-2.91,1.66-5.95C52.1,9.37,34.45,0,15.55,0c-.47,0-.94,0-1.41.02L0,0H0Z"/>
</svg>