<?xml version="1.0" encoding="UTF-8"?>
<svg id="Layer_1" data-name="Layer 1" xmlns="http://www.w3.org/2000/svg" viewBox="0 0 200 200">
  <defs>
    <style>
      .cls-1 {
        fill: #fff;
      }
    </style>
  </defs>
  <path class="cls-1" d="M58.89,67.42c10.92,0,19.78-8.85,19.78-19.78s-8.85-19.78-19.78-19.78-19.78,8.85-19.78,19.78,8.85,19.78,19.78,19.78ZM58.89,38.1c5.26,0,9.55,4.28,9.55,9.55s-4.28,9.55-9.55,9.55-9.55-4.28-9.55-9.55,4.28-9.55,9.55-9.55Z"/>
  <path class="cls-1" d="M51.4,127.25c-1.55-.21-3.1.25-4.27,1.27s-1.85,2.5-1.85,4.06v36.93c0,2.82,2.29,5.11,5.11,5.11s5.11-2.29,5.11-5.11v-30.51c13.42,5.98,21.63,24.96,22.52,31.23.36,2.55,2.55,4.39,5.06,4.39.24,0,.49-.02.73-.05,2.79-.4,4.74-2.99,4.34-5.79-1.17-8.16-12.82-38.08-36.76-41.54Z"/>
  <path class="cls-1" d="M45.37,116.92c0,2.82,2.29,5.11,5.11,5.11s5.11-2.29,5.11-5.11v-36.93c0-1.57-.68-3.05-1.87-4.08-1.19-1.02-2.76-1.46-4.27-1.24-23.91,3.45-35.56,33.37-36.73,41.53-.4,2.8,1.54,5.39,4.34,5.79.25.04.49.05.73.05,2.5,0,4.69-1.84,5.06-4.39.9-6.27,9.1-25.23,22.52-31.23v30.5Z"/>
  <path class="cls-1" d="M187.28,116.19c-1.17-8.16-12.82-38.08-36.68-41.52-1.55-.24-3.12.21-4.32,1.23-1.19,1.02-1.88,2.51-1.88,4.08v36.93c0,2.82,2.29,5.11,5.11,5.11s5.11-2.29,5.11-5.11v-30.51c13.42,5.98,21.63,24.96,22.52,31.23.36,2.55,2.55,4.39,5.06,4.39.24,0,.49-.02.73-.05,2.79-.4,4.74-2.99,4.34-5.79Z"/>
  <path class="cls-1" d="M133.62,127.25c-1.55-.21-3.1.25-4.28,1.27s-1.85,2.5-1.85,4.06v36.93c0,2.82,2.29,5.11,5.11,5.11s5.11-2.29,5.11-5.11v-30.51c13.42,5.98,21.63,24.97,22.52,31.24.36,2.55,2.55,4.39,5.06,4.39.24,0,.49-.02.73-.05,2.79-.4,4.74-2.99,4.34-5.79-1.17-8.16-12.82-38.08-36.75-41.54Z"/>
  <path class="cls-1" d="M127.58,116.92c0,2.82,2.29,5.11,5.11,5.11s5.11-2.29,5.11-5.11v-36.93c0-1.57-.69-3.06-1.88-4.08-1.19-1.02-2.76-1.47-4.27-1.24-15.63,2.25-26.02,15.82-31.67,27.22-5.65-11.4-16.03-24.97-31.63-27.22-1.55-.23-3.12.22-4.31,1.24-1.19,1.02-1.87,2.51-1.87,4.08v36.93c0,2.82,2.29,5.11,5.11,5.11s5.11-2.29,5.11-5.11v-30.51c13.42,5.98,21.63,24.96,22.52,31.23.01.1.05.2.07.3.03.15.06.3.1.44.05.18.12.34.19.51.05.12.1.25.16.36.09.18.2.34.31.5.07.1.13.2.2.3.12.16.27.31.41.45.08.08.15.17.24.24.17.15.36.28.55.41.07.05.13.11.21.15.27.16.56.3.85.41.08.03.17.04.26.07.23.07.46.13.7.17.03,0,.06.02.09.02.23.03.45.05.68.05.01,0,.03,0,.04,0,0,0,0,0,0,0s0,0,0,0c.01,0,.03,0,.04,0,.22,0,.45-.01.67-.05.03,0,.06-.02.09-.02.24-.04.48-.1.71-.17.08-.03.17-.04.25-.07.3-.11.59-.24.86-.41.07-.04.13-.1.19-.14.2-.13.39-.27.57-.42.08-.07.15-.16.23-.24.14-.15.29-.29.41-.46.07-.09.13-.19.2-.29.11-.16.22-.33.31-.51.06-.12.11-.24.16-.36.07-.17.14-.34.19-.51.04-.14.07-.29.1-.44.02-.1.06-.2.07-.3.9-6.27,9.09-25.22,22.52-31.22v30.5Z"/>
  <path class="cls-1" d="M110.23,70.09c.24,0,.49-.02.74-.05,6.51-.94,11.39-5.23,14.77-9.96,3.63,4.48,9.16,7.35,15.37,7.35s11.75-2.87,15.37-7.35c3.37,4.73,8.25,9.02,14.77,9.96.25.04.49.05.74.05,2.5,0,4.69-1.84,5.06-4.39.4-2.79-1.54-5.39-4.33-5.79-6.92-1-11.49-11.63-11.86-14.26-.03-.2-.09-.39-.14-.58-1.27-9.7-9.54-17.2-19.59-17.2s-18.32,7.5-19.59,17.2c-.05.19-.11.38-.14.58-.38,2.63-4.95,13.26-11.86,14.26-2.8.4-4.74,3-4.33,5.79.37,2.55,2.56,4.39,5.06,4.39ZM141.11,38.1c5.26,0,9.55,4.28,9.55,9.55s-4.28,9.55-9.55,9.55-9.55-4.28-9.55-9.55,4.28-9.55,9.55-9.55Z"/>
</svg>