<?xml version="1.0" encoding="UTF-8"?>
<svg id="Layer_1" data-name="Layer 1" xmlns="http://www.w3.org/2000/svg" viewBox="0 0 200 200">
  <defs>
    <style>
      .cls-1 {
        fill: #fff;
      }
    </style>
  </defs>
  <path class="cls-1" d="M162.89,86.33c-.9-2.41-3.59-3.63-6-2.73-2.41.9-3.63,3.59-2.73,6,2.35,6.26,3.33,12.83,2.92,19.53-.79,12.91-6.69,24.73-16.6,33.29-9.95,8.59-22.75,12.88-36.03,12.06-7.4-.45-14.41-2.43-20.86-5.88-2.27-1.22-5.09-.36-6.31,1.91-1.21,2.27-.36,5.09,1.91,6.31,7.64,4.09,15.94,6.43,24.68,6.97,1.26.08,2.52.12,3.77.12,14.37,0,28.06-5.05,38.92-14.42,11.83-10.22,18.87-24.34,19.81-39.77.49-8.02-.68-15.88-3.49-23.38Z"/>
  <path class="cls-1" d="M48.13,113.13c.43,0,.87-.06,1.31-.19,2.47-.72,3.89-3.31,3.16-5.78-1.56-5.33-2.18-10.88-1.84-16.48,1.63-26.52,24.46-46.75,51.06-45.16,6.1.37,11.97,1.86,17.45,4.43,2.33,1.09,5.1.08,6.19-2.25s.08-5.1-2.25-6.19c-6.55-3.06-13.56-4.84-20.83-5.29-15.35-.96-30.12,4.15-41.62,14.33-11.51,10.18-18.36,24.23-19.3,39.56-.41,6.68.33,13.3,2.19,19.67.6,2.03,2.45,3.35,4.47,3.35Z"/>
  <path class="cls-1" d="M104.35,53.99c-9.95,0-18.02,8.07-18.02,18.02s8.07,18.02,18.02,18.02,18.02-8.07,18.02-18.02-8.07-18.02-18.02-18.02ZM104.35,80.7c-4.8,0-8.7-3.9-8.7-8.7s3.9-8.7,8.7-8.7,8.7,3.9,8.7,8.7-3.9,8.7-8.7,8.7Z"/>
  <path class="cls-1" d="M152.81,48.36c-2.4-7.38-8.56-11.73-17.33-12.25-2.58-.23-4.78,1.81-4.93,4.37-.15,2.57,1.81,4.77,4.37,4.93,6.51.39,8.27,3.52,9.02,5.84,3.77,11.57-8.71,38.22-32.65,57.97-24.98,20.61-53.19,29.14-62.88,23.89-1.82-.98-4.16-3-3.48-9.12.28-2.56-1.56-4.86-4.12-5.15-2.62-.3-4.86,1.56-5.15,4.12-1.26,11.37,4.66,16.37,8.31,18.34,3.35,1.81,7.43,2.63,12.01,2.63,17.7,0,42.79-12.31,61.23-27.53,25.1-20.71,41.06-51.24,35.58-68.05Z"/>
</svg>