<?xml version="1.0" encoding="UTF-8"?>
<svg id="Layer_1" data-name="Layer 1" xmlns="http://www.w3.org/2000/svg" viewBox="0 0 200 200">
  <path d="M86.2,165.31c-.28,0-.55-.02-.83-.06-30.39-4.38-45.22-42.54-46.71-52.94-.43-3.01,1.66-5.79,4.67-6.22,3.01-.43,5.79,1.66,6.22,4.67,1.04,7.25,11.75,34.78,31.5,42.1v-41.32c0-3.04,2.46-5.5,5.5-5.5s5.5,2.46,5.5,5.5v47.93c0,1.69-.74,3.3-2.02,4.41-1.07.93-2.43,1.43-3.83,1.43Z"/>
  <path d="M155.81,94.62c-2.69,0-5.05-1.98-5.44-4.72-1.04-7.25-11.75-34.78-31.5-42.1v41.32c0,3.04-2.46,5.5-5.5,5.5s-5.5-2.46-5.5-5.5v-47.94c0-1.7.74-3.31,2.03-4.42s2.99-1.61,4.67-1.36c30.37,4.38,45.2,42.53,46.69,52.94.43,3.01-1.66,5.79-4.67,6.22-.26.04-.53.06-.79.06ZM112.99,46.28s.02,0,.03,0c-.01,0-.02,0-.03,0Z"/>
  <path d="M65.35,33.18v11c11.14,0,20.26,8.73,20.75,19.87.25,5.55-1.68,10.86-5.43,14.96-3.75,4.1-8.87,6.49-14.42,6.74-.32.01-.64.02-.95.02-11.14,0-20.26-8.73-20.75-19.87-.51-11.46,8.39-21.19,19.85-21.71.32-.01.64-.02.95-.02v-11M65.35,33.18c-.48,0-.96.01-1.44.03-17.54.78-31.13,15.64-30.35,33.19.76,17.06,14.83,30.38,31.74,30.38.48,0,.96-.01,1.44-.03,17.55-.78,31.13-15.64,30.35-33.19-.76-17.06-14.83-30.38-31.74-30.38h0Z"/>
  <path d="M148.09,114.75c2.83,0,5.14,2.31,5.14,5.14v26.99c0,2.83-2.31,5.14-5.14,5.14h-26.99c-2.83,0-5.14-2.31-5.14-5.14v-26.99c0-2.83,2.31-5.14,5.14-5.14h26.99M148.09,103.75h-26.99c-8.91,0-16.14,7.23-16.14,16.14v26.99c0,8.91,7.23,16.14,16.14,16.14h26.99c8.91,0,16.14-7.23,16.14-16.14v-26.99c0-8.91-7.23-16.14-16.14-16.14h0Z"/>
</svg>