<?xml version="1.0" encoding="UTF-8"?>
<svg id="Layer_1" data-name="Layer 1" xmlns="http://www.w3.org/2000/svg" viewBox="0 0 200 200">
  <defs>
    <style>
      .cls-1 {
        fill: #234199;
      }
    </style>
  </defs>
  <path id="Initiator" class="cls-1" d="M183.22,100.3c0-45.96-37.26-83.22-83.22-83.22S16.78,54.35,16.78,100.3c0,39.03,26.87,71.77,63.11,80.76v-55.34h-17.16v-25.43h17.16v-10.96c0-28.32,12.82-41.45,40.62-41.45,5.27,0,14.37,1.03,18.09,2.07v23.05c-1.96-.21-5.38-.31-9.61-.31-13.65,0-18.92,5.17-18.92,18.61v8.99h27.18l-4.67,25.43h-22.51v57.18c41.2-4.98,73.13-40.06,73.13-82.61Z"/>
</svg>