<?xml version="1.0" encoding="UTF-8"?>
<svg id="Layer_1" data-name="Layer 1" xmlns="http://www.w3.org/2000/svg" viewBox="0 0 200 200">
  <defs>
    <style>
      .cls-1 {
        fill: #fff;
      }
    </style>
  </defs>
  <path class="cls-1" d="M100,31.78c22.22,0,24.85.08,33.63.49,8.11.37,12.52,1.73,15.45,2.87,3.88,1.51,6.66,3.31,9.57,6.22,2.91,2.91,4.71,5.68,6.22,9.57,1.14,2.93,2.49,7.34,2.87,15.45.4,8.77.49,11.41.49,33.63s-.09,24.85-.49,33.63c-.37,8.11-1.73,12.52-2.87,15.45-1.51,3.89-3.31,6.66-6.22,9.57-2.91,2.91-5.68,4.71-9.57,6.22-2.93,1.14-7.34,2.5-15.45,2.87-8.78.4-11.4.48-33.63.48s-24.85-.08-33.63-.48c-8.11-.37-12.52-1.73-15.45-2.87-3.89-1.51-6.66-3.31-9.57-6.22-2.91-2.91-4.71-5.68-6.22-9.57-1.14-2.93-2.49-7.34-2.87-15.45-.4-8.77-.48-11.41-.48-33.63s.08-24.85.48-33.63c.37-8.11,1.73-12.52,2.87-15.45,1.51-3.88,3.31-6.65,6.22-9.57,2.91-2.91,5.68-4.71,9.57-6.22,2.93-1.14,7.34-2.5,15.45-2.87,8.77-.4,11.41-.49,33.63-.49M100,16.78c-22.6,0-25.43.1-34.31.5-8.86.4-14.91,1.81-20.2,3.87-5.47,2.13-10.11,4.97-14.74,9.6-4.63,4.63-7.47,9.27-9.6,14.74-2.06,5.29-3.47,11.34-3.87,20.2-.41,8.88-.5,11.71-.5,34.31s.1,25.43.5,34.31c.4,8.86,1.81,14.91,3.87,20.2,2.13,5.47,4.97,10.11,9.6,14.74,4.63,4.63,9.27,7.47,14.74,9.6,5.29,2.06,11.34,3.46,20.2,3.87,8.88.4,11.71.5,34.31.5s25.43-.09,34.31-.5c8.86-.4,14.91-1.81,20.2-3.87,5.47-2.13,10.11-4.97,14.74-9.6,4.63-4.63,7.47-9.27,9.6-14.74,2.06-5.29,3.46-11.34,3.87-20.2.4-8.88.5-11.71.5-34.31s-.09-25.43-.5-34.31c-.4-8.86-1.81-14.91-3.87-20.2-2.13-5.47-4.97-10.11-9.6-14.74-4.63-4.63-9.27-7.47-14.74-9.6-5.29-2.06-11.34-3.46-20.2-3.87-8.88-.4-11.71-.5-34.31-.5"/>
  <path class="cls-1" d="M100,57.27c-23.6,0-42.73,19.13-42.73,42.73s19.13,42.73,42.73,42.73,42.73-19.13,42.73-42.73-19.13-42.73-42.73-42.73M100,127.74c-15.32,0-27.74-12.42-27.74-27.74s12.42-27.74,27.74-27.74,27.74,12.42,27.74,27.74-12.42,27.74-27.74,27.74"/>
  <path class="cls-1" d="M154.41,55.58c0,5.51-4.47,9.99-9.99,9.99s-9.99-4.47-9.99-9.99,4.47-9.99,9.99-9.99,9.99,4.47,9.99,9.99"/>
</svg>