<?xml version="1.0" encoding="UTF-8"?>
<svg id="Layer_1" data-name="Layer 1" xmlns="http://www.w3.org/2000/svg" viewBox="0 0 200 200">
  <defs>
    <style>
      .cls-1 {
        fill: #fff;
      }
    </style>
  </defs>
  <path class="cls-1" d="M164.81,21.98H35.19c-7.29,0-13.2,5.91-13.2,13.2v129.63c0,7.29,5.91,13.2,13.2,13.2h129.63c7.29,0,13.2-5.91,13.2-13.2V35.19c0-7.29-5.91-13.2-13.2-13.2ZM68.44,157.68h-23.81v-76.91h23.81v76.91ZM56.42,70.7c-7.78,0-14.08-6.36-14.08-14.2s6.3-14.19,14.08-14.19,14.08,6.35,14.08,14.19-6.3,14.2-14.08,14.2ZM157.66,157.68h-23.7v-40.37c0-11.07-4.21-17.25-12.96-17.25-9.53,0-14.51,6.44-14.51,17.25v40.37h-22.84v-76.91h22.84v10.36s6.86-12.71,23.18-12.71,27.98,9.96,27.98,30.56v48.7Z"/>
</svg>