<?xml version="1.0" encoding="UTF-8"?>
<svg id="Layer_1" data-name="Layer 1" xmlns="http://www.w3.org/2000/svg" viewBox="0 0 200 200">
  <defs>
    <style>
      .cls-1 {
        fill: #fff;
      }
    </style>
  </defs>
  <path class="cls-1" d="M100,0C44.77,0,0,44.77,0,100s44.77,100,100,100,100-44.77,100-100S155.23,0,100,0ZM150,115h-35v35c0,8.28-6.72,15-15,15s-15-6.72-15-15v-35h-35c-8.28,0-15-6.72-15-15s6.72-15,15-15h35v-35c0-8.28,6.72-15,15-15s15,6.72,15,15v35h35c8.28,0,15,6.72,15,15s-6.72,15-15,15Z"/>
</svg>