<?xml version="1.0" encoding="UTF-8"?>
<svg id="Layer_1" data-name="Layer 1" xmlns="http://www.w3.org/2000/svg" viewBox="0 0 200 200">
  <path d="M104.68,54.38v-18.2c0-2.59-2.1-4.68-4.68-4.68s-4.68,2.1-4.68,4.68v18.2c-23.13,2.34-41.18,21.87-41.18,45.62s18.05,43.28,41.18,45.62v18.2c0,2.59,2.1,4.68,4.68,4.68s4.68-2.1,4.68-4.68v-18.2c23.13-2.35,41.17-21.87,41.17-45.62s-18.05-43.27-41.17-45.62ZM63.51,100c0-18.53,13.9-33.85,31.81-36.16v72.32c-17.91-2.31-31.81-17.63-31.81-36.16ZM104.68,136.16V63.84c17.91,2.31,31.81,17.63,31.81,36.16s-13.9,33.85-31.81,36.16Z"/>
  <path d="M169.11,118.92c-10,0-18.1,8.1-18.1,18.1s8.11,18.1,18.1,18.1,18.1-8.1,18.1-18.1-8.11-18.1-18.1-18.1ZM169.11,145.77c-4.82,0-8.74-3.92-8.74-8.74s3.92-8.74,8.74-8.74,8.74,3.92,8.74,8.74-3.92,8.74-8.74,8.74Z"/>
  <path d="M30.89,47.16c-10,0-18.1,8.11-18.1,18.1s8.11,18.1,18.1,18.1,18.1-8.11,18.1-18.1-8.1-18.1-18.1-18.1ZM30.89,74c-4.82,0-8.74-3.92-8.74-8.74s3.92-8.74,8.74-8.74,8.74,3.92,8.74,8.74-3.92,8.74-8.74,8.74Z"/>
  <path d="M43.96,123.96c-1.83-1.83-4.79-1.83-6.62,0l-6.45,6.45-6.45-6.45c-1.83-1.83-4.79-1.83-6.62,0s-1.83,4.79,0,6.62l6.45,6.45-6.45,6.45c-1.83,1.83-1.83,4.79,0,6.62.91.91,2.11,1.37,3.31,1.37s2.4-.46,3.31-1.37l6.45-6.45,6.45,6.45c.91.91,2.11,1.37,3.31,1.37s2.4-.46,3.31-1.37c1.83-1.83,1.83-4.79,0-6.62l-6.45-6.45,6.45-6.45c1.83-1.83,1.83-4.79,0-6.62Z"/>
  <path d="M161.44,77.51c.86.86,1.98,1.28,3.1,1.28s2.24-.43,3.1-1.28l18.29-18.29c1.71-1.71,1.71-4.49,0-6.2s-4.49-1.71-6.2,0l-15.19,15.19-6.04-6.04c-1.71-1.71-4.49-1.71-6.2,0s-1.71,4.49,0,6.2l9.14,9.14Z"/>
</svg>