<?xml version="1.0" encoding="UTF-8"?>
<svg id="Layer_1" data-name="Layer 1" xmlns="http://www.w3.org/2000/svg" viewBox="0 0 200 200">
  <defs>
    <style>
      .cls-1 {
        fill: #fff;
      }
    </style>
  </defs>
  <path class="cls-1" d="M183.68,57.69c-2.01-7.56-7.93-13.52-15.44-15.54-13.62-3.67-68.24-3.67-68.24-3.67,0,0-54.62,0-68.24,3.67-7.51,2.02-13.43,7.98-15.44,15.54-3.65,13.71-3.65,42.31-3.65,42.31,0,0,0,28.6,3.65,42.31,2.01,7.56,7.93,13.52,15.44,15.54,13.62,3.67,68.24,3.67,68.24,3.67,0,0,54.62,0,68.24-3.67,7.51-2.02,13.43-7.98,15.44-15.54,3.65-13.71,3.65-42.31,3.65-42.31,0,0,0-28.6-3.65-42.31ZM82.14,125.97v-51.94l45.65,25.97-45.65,25.97Z"/>
</svg>