<?xml version="1.0" encoding="UTF-8"?>
<svg id="Layer_1" data-name="Layer 1" xmlns="http://www.w3.org/2000/svg" xmlns:xlink="http://www.w3.org/1999/xlink" viewBox="0 0 140 140">
  <defs>
    <style>
      .cls-1 {
        fill: url(#linear-gradient);
      }

      .cls-2 {
        fill: #fff;
      }
    </style>
    <linearGradient id="linear-gradient" x1="29.79" y1="29.81" x2="106" y2="106.02" gradientUnits="userSpaceOnUse">
      <stop offset="0" stop-color="#39419a"/>
      <stop offset="1" stop-color="#f6b03f"/>
    </linearGradient>
  </defs>
  <g>
    <path class="cls-2" d="M94.66,29.08c-.45,0-.9-.11-1.32-.35-8.69-4.93-18.57-6.95-28.56-5.85-1.47.15-2.79-.9-2.96-2.37s.9-2.79,2.37-2.96c11.12-1.22,22.11,1.03,31.79,6.51,1.29.73,1.74,2.36,1.01,3.65-.49.87-1.4,1.36-2.33,1.36Z"/>
    <path class="cls-2" d="M41.38,31.57c-.85,0-1.68-.4-2.2-1.15-.85-1.21-.55-2.88.67-3.73,4.08-2.85,8.55-5.1,13.29-6.69,1.4-.47,2.92.28,3.39,1.68.47,1.4-.28,2.92-1.68,3.39-4.25,1.43-8.26,3.45-11.93,6.01-.47.33-1,.48-1.53.48Z"/>
    <path class="cls-2" d="M69.97,122.76c-12.49,0-25.01-4.39-35.05-13.32-10.53-9.37-16.78-22.28-17.6-36.35-.82-14.07,3.89-27.62,13.26-38.15.98-1.1,2.67-1.21,3.78-.22,1.1.98,1.2,2.68.22,3.78-8.42,9.46-12.65,21.64-11.91,34.28.74,12.64,6.35,24.24,15.82,32.66,19.53,17.38,49.56,15.63,66.94-3.9,8.42-9.46,12.65-21.64,11.91-34.28-.74-12.64-6.35-24.24-15.82-32.66-1.1-.98-1.2-2.68-.22-3.78.98-1.1,2.67-1.21,3.78-.22,10.53,9.37,16.78,22.28,17.6,36.35.82,14.07-3.89,27.62-13.26,38.15-10.41,11.7-24.9,17.67-39.45,17.67Z"/>
    <path class="cls-2" d="M70,99.44c-16.22,0-29.42-13.2-29.42-29.42s13.2-29.42,29.42-29.42,29.42,13.2,29.42,29.42-13.2,29.42-29.42,29.42ZM70,45.95c-13.27,0-24.07,10.8-24.07,24.07s10.8,24.07,24.07,24.07,24.07-10.8,24.07-24.07-10.8-24.07-24.07-24.07Z"/>
  </g>
  <g>
    <path class="cls-1" d="M94.66,29.08c-.45,0-.9-.11-1.32-.35-8.69-4.93-18.57-6.95-28.56-5.85-1.47.15-2.79-.9-2.96-2.37s.9-2.79,2.37-2.96c11.12-1.22,22.11,1.03,31.79,6.51,1.29.73,1.74,2.36,1.01,3.65-.49.87-1.4,1.36-2.33,1.36Z"/>
    <path class="cls-1" d="M41.38,31.57c-.85,0-1.68-.4-2.2-1.15-.85-1.21-.55-2.88.67-3.73,4.08-2.85,8.55-5.1,13.29-6.69,1.4-.47,2.92.28,3.39,1.68.47,1.4-.28,2.92-1.68,3.39-4.25,1.43-8.26,3.45-11.93,6.01-.47.33-1,.48-1.53.48Z"/>
    <path class="cls-1" d="M69.97,122.76c-12.49,0-25.01-4.39-35.05-13.32-10.53-9.37-16.78-22.28-17.6-36.35-.82-14.07,3.89-27.62,13.26-38.15.98-1.1,2.67-1.21,3.78-.22,1.1.98,1.2,2.68.22,3.78-8.42,9.46-12.65,21.64-11.91,34.28.74,12.64,6.35,24.24,15.82,32.66,19.53,17.38,49.56,15.63,66.94-3.9,8.42-9.46,12.65-21.64,11.91-34.28-.74-12.64-6.35-24.24-15.82-32.66-1.1-.98-1.2-2.68-.22-3.78.98-1.1,2.67-1.21,3.78-.22,10.53,9.37,16.78,22.28,17.6,36.35.82,14.07-3.89,27.62-13.26,38.15-10.41,11.7-24.9,17.67-39.45,17.67Z"/>
    <path class="cls-1" d="M70,99.44c-16.22,0-29.42-13.2-29.42-29.42s13.2-29.42,29.42-29.42,29.42,13.2,29.42,29.42-13.2,29.42-29.42,29.42ZM70,45.95c-13.27,0-24.07,10.8-24.07,24.07s10.8,24.07,24.07,24.07,24.07-10.8,24.07-24.07-10.8-24.07-24.07-24.07Z"/>
  </g>
</svg>