<?xml version="1.0" encoding="UTF-8"?>
<svg id="Layer_1" data-name="Layer 1" xmlns="http://www.w3.org/2000/svg" xmlns:xlink="http://www.w3.org/1999/xlink" viewBox="0 0 140 140">
  <defs>
    <style>
      .cls-1 {
        fill: url(#linear-gradient);
      }

      .cls-2 {
        fill: #fff;
      }
    </style>
    <linearGradient id="linear-gradient" x1="28.61" y1="23.68" x2="119.88" y2="114.95" gradientUnits="userSpaceOnUse">
      <stop offset="0" stop-color="#f8b22e"/>
      <stop offset="1" stop-color="#446db4"/>
    </linearGradient>
  </defs>
  <g>
    <path class="cls-2" d="M67.99,124.51c-12.79,0-24.42-4.13-32.12-11.46l-.58-.55v-58.04c0-1.03.83-1.86,1.86-1.86s1.86.83,1.86,1.86v56.44c15.89,14.38,45.74,12.03,59.19,0v-42.12c0-1.03.83-1.86,1.86-1.86s1.86.83,1.86,1.86v43.73l-.58.55c-7.14,6.79-18.94,11.06-31.57,11.43-.59.02-1.18.03-1.76.03Z"/>
    <path class="cls-2" d="M95.08,70.8l-.69-18.92c-.04-1.02.76-1.89,1.79-1.92.02,0,.05,0,.07,0,.99,0,1.82.79,1.85,1.79l.54,14.69,20.84-3.52-6.95-29.88c-.82-3.55-3.26-6.3-6.21-7l-24.33-5.78c-1.28,5.12-6.92,9.92-17.64,9.92s-16.29-4.73-17.62-9.81l-13.05,3.83c-2.69.79-4.9,3.29-5.78,6.51l-7.38,27.32,17.1,4.53c.99.26,1.58,1.28,1.32,2.27-.26.99-1.27,1.58-2.27,1.32l-17.54-4.64c-.8-.21-1.47-.74-1.91-1.49-.47-.81-.6-1.81-.35-2.74l7.44-27.53c1.23-4.54,4.33-7.94,8.32-9.11l17.5-5.13v2.48c0,5.57,7.15,8.48,14.21,8.48s14.21-2.91,14.21-8.48v-2.35l28.61,6.79c4.38,1.04,7.81,4.79,8.97,9.77l7.01,30.15c.43,1.86-.63,3.71-2.37,4.12l-.12.02-25.59,4.33ZM20.46,58.23h0Z"/>
    <path class="cls-2" d="M63.7,52.99l2.06,4.2c1.34,2.72,3.93,4.6,6.93,5.04l4.63.66c.67.1.94.92.45,1.39l-3.36,3.26c-2.17,2.11-3.16,5.16-2.65,8.15l.8,4.61c.12.67-.59,1.18-1.19.86l-4.14-2.18c-2.68-1.41-5.89-1.41-8.57,0l-4.14,2.18c-.6.32-1.3-.19-1.19-.86l.8-4.61c.52-2.99-.47-6.04-2.65-8.15l-3.36-3.26c-.49-.47-.22-1.3.45-1.39l4.63-.66c3-.43,5.59-2.32,6.93-5.04l2.06-4.2c.3-.61,1.17-.61,1.47,0Z"/>
  </g>
  <g>
    <path class="cls-1" d="M67.99,124.51c-12.79,0-24.42-4.13-32.12-11.46l-.58-.55v-58.04c0-1.03.83-1.86,1.86-1.86s1.86.83,1.86,1.86v56.44c15.89,14.38,45.74,12.03,59.19,0v-42.12c0-1.03.83-1.86,1.86-1.86s1.86.83,1.86,1.86v43.73l-.58.55c-7.14,6.79-18.94,11.06-31.57,11.43-.59.02-1.18.03-1.76.03Z"/>
    <path class="cls-1" d="M95.08,70.8l-.69-18.92c-.04-1.02.76-1.89,1.79-1.92.02,0,.05,0,.07,0,.99,0,1.82.79,1.85,1.79l.54,14.69,20.84-3.52-6.95-29.88c-.82-3.55-3.26-6.3-6.21-7l-24.33-5.78c-1.28,5.12-6.92,9.92-17.64,9.92s-16.29-4.73-17.62-9.81l-13.05,3.83c-2.69.79-4.9,3.29-5.78,6.51l-7.38,27.32,17.1,4.53c.99.26,1.58,1.28,1.32,2.27-.26.99-1.27,1.58-2.27,1.32l-17.54-4.64c-.8-.21-1.47-.74-1.91-1.49-.47-.81-.6-1.81-.35-2.74l7.44-27.53c1.23-4.54,4.33-7.94,8.32-9.11l17.5-5.13v2.48c0,5.57,7.15,8.48,14.21,8.48s14.21-2.91,14.21-8.48v-2.35l28.61,6.79c4.38,1.04,7.81,4.79,8.97,9.77l7.01,30.15c.43,1.86-.63,3.71-2.37,4.12l-.12.02-25.59,4.33ZM20.46,58.23h0Z"/>
    <path class="cls-1" d="M63.7,52.99l2.06,4.2c1.34,2.72,3.93,4.6,6.93,5.04l4.63.66c.67.1.94.92.45,1.39l-3.36,3.26c-2.17,2.11-3.16,5.16-2.65,8.15l.8,4.61c.12.67-.59,1.18-1.19.86l-4.14-2.18c-2.68-1.41-5.89-1.41-8.57,0l-4.14,2.18c-.6.32-1.3-.19-1.19-.86l.8-4.61c.52-2.99-.47-6.04-2.65-8.15l-3.36-3.26c-.49-.47-.22-1.3.45-1.39l4.63-.66c3-.43,5.59-2.32,6.93-5.04l2.06-4.2c.3-.61,1.17-.61,1.47,0Z"/>
  </g>
</svg>