<?xml version="1.0" encoding="UTF-8"?>
<svg id="Layer_1" data-name="Layer 1" xmlns="http://www.w3.org/2000/svg" xmlns:xlink="http://www.w3.org/1999/xlink" viewBox="0 0 140 140">
  <defs>
    <style>
      .cls-1 {
        fill: url(#linear-gradient);
      }

      .cls-2 {
        fill: #fff;
      }
    </style>
    <linearGradient id="linear-gradient" x1="25.03" y1="29.45" x2="119.26" y2="123.68" gradientUnits="userSpaceOnUse">
      <stop offset="0" stop-color="#39419a"/>
      <stop offset="1" stop-color="#f6b03f"/>
    </linearGradient>
  </defs>
  <g>
    <path class="cls-2" d="M50.8,68.57c-.4,0-.8-.09-1.17-.29l-30.25-15.93c-2.88-1.52-4.62-4.48-4.53-7.74.09-3.26,1.99-6.12,4.95-7.48l31.09-14.22c1.26-.58,2.76-.02,3.34,1.24.58,1.26.02,2.76-1.24,3.34l-31.09,14.22c-1.22.56-1.98,1.7-2.01,3.04s.65,2.52,1.84,3.15l30.25,15.93c1.23.65,1.7,2.17,1.05,3.4-.45.86-1.32,1.35-2.23,1.35Z"/>
    <path class="cls-2" d="M88.97,117.32c-.91,0-1.8-.5-2.24-1.37-.63-1.24-.15-2.75,1.09-3.39l30.42-15.61c1.2-.61,1.9-1.78,1.87-3.13-.02-1.35-.76-2.49-1.98-3.06l-30.94-14.55c-1.26-.59-1.8-2.09-1.21-3.35.59-1.26,2.09-1.8,3.35-1.21l30.94,14.55c2.95,1.39,4.82,4.27,4.87,7.53s-1.71,6.21-4.61,7.69l-30.42,15.61c-.37.19-.76.28-1.15.28Z"/>
    <path class="cls-2" d="M35.27,106.93c-.64,0-1.29-.25-1.78-.74-.98-.98-.98-2.58,0-3.56L98.22,37.91c.98-.98,2.58-.98,3.56,0s.98,2.58,0,3.56L37.05,106.2c-.49.49-1.14.74-1.78.74Z"/>
  </g>
  <g>
    <path class="cls-1" d="M50.8,68.57c-.4,0-.8-.09-1.17-.29l-30.25-15.93c-2.88-1.52-4.62-4.48-4.53-7.74.09-3.26,1.99-6.12,4.95-7.48l31.09-14.22c1.26-.58,2.76-.02,3.34,1.24.58,1.26.02,2.76-1.24,3.34l-31.09,14.22c-1.22.56-1.98,1.7-2.01,3.04s.65,2.52,1.84,3.15l30.25,15.93c1.23.65,1.7,2.17,1.05,3.4-.45.86-1.32,1.35-2.23,1.35Z"/>
    <path class="cls-1" d="M88.97,117.32c-.91,0-1.8-.5-2.24-1.37-.63-1.24-.15-2.75,1.09-3.39l30.42-15.61c1.2-.61,1.9-1.78,1.87-3.13-.02-1.35-.76-2.49-1.98-3.06l-30.94-14.55c-1.26-.59-1.8-2.09-1.21-3.35.59-1.26,2.09-1.8,3.35-1.21l30.94,14.55c2.95,1.39,4.82,4.27,4.87,7.53s-1.71,6.21-4.61,7.69l-30.42,15.61c-.37.19-.76.28-1.15.28Z"/>
    <path class="cls-1" d="M35.27,106.93c-.64,0-1.29-.25-1.78-.74-.98-.98-.98-2.58,0-3.56L98.22,37.91c.98-.98,2.58-.98,3.56,0s.98,2.58,0,3.56L37.05,106.2c-.49.49-1.14.74-1.78.74Z"/>
  </g>
</svg>