<?xml version="1.0" encoding="UTF-8"?>
<svg id="Layer_1" data-name="Layer 1" xmlns="http://www.w3.org/2000/svg" xmlns:xlink="http://www.w3.org/1999/xlink" viewBox="0 0 140 140">
  <defs>
    <style>
      .cls-1 {
        fill: url(#linear-gradient);
      }

      .cls-2 {
        fill: #fff;
      }
    </style>
    <linearGradient id="linear-gradient" x1="32.88" y1="32.54" x2="94.1" y2="93.76" gradientUnits="userSpaceOnUse">
      <stop offset="0" stop-color="#f8b22e"/>
      <stop offset="1" stop-color="#446db4"/>
    </linearGradient>
  </defs>
  <g>
    <path class="cls-2" d="M100.51,96.05c-1.4,0-2.78-.48-3.89-1.37-20.51-16.46-51.85-20.63-68.71-21.66-6.48-.39-11.55-5.8-11.55-12.3v-7.67c0-6.51,5.08-11.91,11.55-12.3,16.82-1.02,48.1-5.18,68.61-21.58,1.39-1.11,3.19-1.58,4.94-1.3,1.72.28,3.25,1.27,4.2,2.72,4.17,6.4,5.51,19.69,5.93,27.04l-3.71.22c-.69-11.88-2.63-21.08-5.34-25.23-.38-.58-.97-.96-1.67-1.07-.72-.11-1.46.08-2.03.53-9.15,7.31-30.5,19.94-70.71,22.38-4.52.27-8.06,4.05-8.06,8.59v7.67c0,4.54,3.54,8.32,8.06,8.59,40.3,2.45,61.67,15.13,70.81,22.47.54.43,1.23.62,1.92.52.64-.1,1.2-.44,1.56-.97,3.01-4.42,5.17-15.57,5.62-29.09l3.72.13c-.23,6.92-1.31,23.79-6.27,31.06-.95,1.4-2.4,2.3-4.08,2.55-.3.04-.6.07-.9.07Z"/>
    <path class="cls-2" d="M39.02,84.27l4.41,34.04-4.93-.68-13.06-35.23,13.58,1.87M39.86,80.63l-15.72-2.16c-2.1-.29-3.76.98-3.21,2.47l14.31,38.61c.33.88,1.37,1.58,2.63,1.76l6.24.86c1.89.26,3.47-.75,3.3-2.1l-4.83-37.31c-.13-1.03-1.27-1.92-2.72-2.12h0Z"/>
    <path class="cls-2" d="M100.88,94.47c-.53-.58-12.91-14.42-12.91-35.51s12.24-38.71,12.76-39.45l3.05,2.13c-.12.17-12.09,17.57-12.09,37.32s11.82,32.87,11.94,33l-2.75,2.5Z"/>
    <path class="cls-2" d="M101.97,66.01c-2.01,0-3.86-1.31-4.44-3.29-1.54-5.22-1.57-10.19-.07-14.77.73-2.23,3.04-3.53,5.36-3.04l17.37,3.71c2.03.58,3.45,2.45,3.45,4.56v4.46c0,2.11-1.42,3.99-3.45,4.56l-.12.03-17.14,3.66c-.32.07-.65.1-.97.1ZM101.85,48.54c-.38,0-.73.23-.85.58-1.28,3.9-1.25,8.01.1,12.55.13.44.6.7,1.07.6l17.06-3.64c.42-.14.7-.53.7-.97v-4.46c0-.44-.29-.83-.7-.97l-17.17-3.67c-.07-.01-.13-.02-.2-.02Z"/>
  </g>
  <g>
    <path class="cls-1" d="M100.51,96.05c-1.4,0-2.78-.48-3.89-1.37-20.51-16.46-51.85-20.63-68.71-21.66-6.48-.39-11.55-5.8-11.55-12.3v-7.67c0-6.51,5.08-11.91,11.55-12.3,16.82-1.02,48.1-5.18,68.61-21.58,1.39-1.11,3.19-1.58,4.94-1.3,1.72.28,3.25,1.27,4.2,2.72,4.17,6.4,5.51,19.69,5.93,27.04l-3.71.22c-.69-11.88-2.63-21.08-5.34-25.23-.38-.58-.97-.96-1.67-1.07-.72-.11-1.46.08-2.03.53-9.15,7.31-30.5,19.94-70.71,22.38-4.52.27-8.06,4.05-8.06,8.59v7.67c0,4.54,3.54,8.32,8.06,8.59,40.3,2.45,61.67,15.13,70.81,22.47.54.43,1.23.62,1.92.52.64-.1,1.2-.44,1.56-.97,3.01-4.42,5.17-15.57,5.62-29.09l3.72.13c-.23,6.92-1.31,23.79-6.27,31.06-.95,1.4-2.4,2.3-4.08,2.55-.3.04-.6.07-.9.07Z"/>
    <path class="cls-1" d="M39.02,84.27l4.41,34.04-4.93-.68-13.06-35.23,13.58,1.87M39.86,80.63l-15.72-2.16c-2.1-.29-3.76.98-3.21,2.47l14.31,38.61c.33.88,1.37,1.58,2.63,1.76l6.24.86c1.89.26,3.47-.75,3.3-2.1l-4.83-37.31c-.13-1.03-1.27-1.92-2.72-2.12h0Z"/>
    <path class="cls-1" d="M100.88,94.47c-.53-.58-12.91-14.42-12.91-35.51s12.24-38.71,12.76-39.45l3.05,2.13c-.12.17-12.09,17.57-12.09,37.32s11.82,32.87,11.94,33l-2.75,2.5Z"/>
    <path class="cls-1" d="M101.97,66.01c-2.01,0-3.86-1.31-4.44-3.29-1.54-5.22-1.57-10.19-.07-14.77.73-2.23,3.04-3.53,5.36-3.04l17.37,3.71c2.03.58,3.45,2.45,3.45,4.56v4.46c0,2.11-1.42,3.99-3.45,4.56l-.12.03-17.14,3.66c-.32.07-.65.1-.97.1ZM101.85,48.54c-.38,0-.73.23-.85.58-1.28,3.9-1.25,8.01.1,12.55.13.44.6.7,1.07.6l17.06-3.64c.42-.14.7-.53.7-.97v-4.46c0-.44-.29-.83-.7-.97l-17.17-3.67c-.07-.01-.13-.02-.2-.02Z"/>
  </g>
</svg>