<?xml version="1.0" encoding="UTF-8"?>
<svg id="Layer_1" data-name="Layer 1" xmlns="http://www.w3.org/2000/svg" xmlns:xlink="http://www.w3.org/1999/xlink" viewBox="0 0 140 140">
  <defs>
    <style>
      .cls-1 {
        fill: url(#linear-gradient-5);
      }

      .cls-2 {
        fill: url(#linear-gradient-4);
      }

      .cls-3 {
        fill: url(#linear-gradient-3);
      }

      .cls-4 {
        fill: url(#linear-gradient-2);
      }

      .cls-5 {
        fill: url(#linear-gradient);
      }

      .cls-6 {
        fill: #fff;
      }
    </style>
    <linearGradient id="linear-gradient" x1="26.19" y1="27.63" x2="107.93" y2="109.38" gradientUnits="userSpaceOnUse">
      <stop offset="0" stop-color="#f8b22e"/>
      <stop offset="1" stop-color="#446db4"/>
    </linearGradient>
    <linearGradient id="linear-gradient-2" gradientTransform="translate(20.19 -4.47) rotate(17.19)" xlink:href="#linear-gradient"/>
    <linearGradient id="linear-gradient-3" gradientTransform="translate(30.72 -10.03) rotate(16.42)" xlink:href="#linear-gradient"/>
    <linearGradient id="linear-gradient-4" gradientTransform="translate(33.78 -6.28) rotate(17.95)" xlink:href="#linear-gradient"/>
    <linearGradient id="linear-gradient-5" gradientTransform="translate(21.23 -32.5) rotate(19.25)" xlink:href="#linear-gradient"/>
  </defs>
  <g>
    <path class="cls-6" d="M91.98,112.14c-2,0-3.98-.23-5.92-.7l-24.68-5.89c-1.07-.26-1.74-1.34-1.48-2.41.26-1.08,1.34-1.73,2.41-1.48l24.68,5.89c5.67,1.35,11.77.34,18.14-3.02l21.39-11.27c.97-.64,1.52-1.75,1.44-2.91l-3.24-40.23c-.35-5.26-4.21-9.48-9.39-10.3l-47.94-7.55c-5.67-.89-11.54-.35-16.96,1.56l-16.04,5.66c-2.57.91-4.4,3.25-4.65,5.96l-.98,10.36c-.1,1.1-1.09,1.9-2.18,1.8-1.1-.1-1.91-1.08-1.8-2.18l.98-10.36c.4-4.26,3.27-7.94,7.31-9.36l16.04-5.66c6.04-2.13,12.58-2.73,18.91-1.74l47.94,7.55c7.04,1.11,12.29,6.85,12.76,13.96l3.24,40.23c.18,2.68-1.11,5.21-3.36,6.62l-.13.08-21.47,11.3c-5.13,2.71-10.16,4.07-15.01,4.07Z"/>
    <path class="cls-6" d="M95.22,109.74l-1.95-49.59c-.13-3.94-3.04-7.31-6.9-8.01l-56.09-10.41.73-3.93,56.08,10.41c5.7,1.04,9.99,6,10.18,11.8l1.95,49.58-4,.16Z"/>
    <g>
      <path class="cls-6" d="M26.09,109.13c-6.57,0-13.86-8.83-16.83-20.57-2.06-8.15-1.49-15.82,1.48-20.01,1.42-2,3.34-3.17,5.54-3.37,6.72-.61,14.41,8.41,17.48,20.54h0c2.06,8.15,1.49,15.82-1.48,20.01-1.42,2-3.34,3.17-5.54,3.37-.21.02-.43.03-.65.03ZM16.95,69.16c-.1,0-.21,0-.31.01-1.03.09-1.89.65-2.64,1.7-2.28,3.22-2.62,9.78-.87,16.72,2.73,10.79,9.18,17.92,13.24,17.53,1.03-.09,1.89-.65,2.64-1.7,2.28-3.22,2.62-9.78.87-16.72h0c-2.66-10.52-8.85-17.55-12.93-17.55Z"/>
      <path class="cls-6" d="M39.67,106.4c-1.26,0-2.55-.29-3.86-.88l1.63-3.65c.92.41,1.78.59,2.58.51,1.17-.1,2.14-.73,2.97-1.91,2.49-3.52,2.87-10.67.96-18.23-2.97-11.76-10.04-19.52-14.5-19.1-1.27.11-2.35.88-3.21,2.26l-3.39-2.12c1.54-2.47,3.7-3.9,6.25-4.13,7.17-.64,15.44,9.06,18.74,22.1,2.22,8.77,1.61,17.02-1.58,21.52-1.51,2.13-3.54,3.37-5.88,3.58-.24.02-.48.03-.72.03Z"/>
      <rect class="cls-6" x="16.07" y="62.57" width="17.64" height="4" transform="translate(-17.97 10.24) rotate(-17.19)"/>
      <path class="cls-6" d="M56.28,101.61l-.36-3.98c1.17-.1,2.14-.73,2.97-1.91,2.49-3.52,2.87-10.67.96-18.23-2.9-11.46-9.68-19.12-14.16-19.12-.06,0-.11,0-.16,0l-16.38,4.81-1.13-3.84,16.97-4.94c7.2-.65,15.44,9.06,18.74,22.1,2.22,8.77,1.61,17.02-1.58,21.52-1.51,2.13-3.54,3.37-5.88,3.58Z"/>
      <path class="cls-6" d="M61.73,97.84l-1.23-3.8,10.95-3.55c4.29-3.12,5.2-12.62,2.03-21.84-2.23-6.5-6.88-13.25-13.21-12.94l-11.04,3.42-1.18-3.82,11.49-3.55.22-.02c7.32-.55,14.01,5.43,17.51,15.62,3.35,9.75,3.11,22.02-3.82,26.61l-.23.15-11.49,3.72Z"/>
      <rect class="cls-6" x="42.04" y="99.44" width="16.15" height="4" transform="translate(-26.63 18.3) rotate(-16.42)"/>
      <rect class="cls-6" x="27.82" y="101.83" width="17.88" height="4" transform="translate(-30.21 16.38) rotate(-17.95)"/>
    </g>
    <rect class="cls-6" x="89.84" y="44.35" width="33.24" height="4" transform="translate(-9.33 37.69) rotate(-19.25)"/>
  </g>
  <g>
    <path class="cls-5" d="M91.98,112.14c-2,0-3.98-.23-5.92-.7l-24.68-5.89c-1.07-.26-1.74-1.34-1.48-2.41.26-1.08,1.34-1.73,2.41-1.48l24.68,5.89c5.67,1.35,11.77.34,18.14-3.02l21.39-11.27c.97-.64,1.52-1.75,1.44-2.91l-3.24-40.23c-.35-5.26-4.21-9.48-9.39-10.3l-47.94-7.55c-5.67-.89-11.54-.35-16.96,1.56l-16.04,5.66c-2.57.91-4.4,3.25-4.65,5.96l-.98,10.36c-.1,1.1-1.09,1.9-2.18,1.8-1.1-.1-1.91-1.08-1.8-2.18l.98-10.36c.4-4.26,3.27-7.94,7.31-9.36l16.04-5.66c6.04-2.13,12.58-2.73,18.91-1.74l47.94,7.55c7.04,1.11,12.29,6.85,12.76,13.96l3.24,40.23c.18,2.68-1.11,5.21-3.36,6.62l-.13.08-21.47,11.3c-5.13,2.71-10.16,4.07-15.01,4.07Z"/>
    <path class="cls-5" d="M95.22,109.74l-1.95-49.59c-.13-3.94-3.04-7.31-6.9-8.01l-56.09-10.41.73-3.93,56.08,10.41c5.7,1.04,9.99,6,10.18,11.8l1.95,49.58-4,.16Z"/>
    <g>
      <path class="cls-5" d="M26.09,109.13c-6.57,0-13.86-8.83-16.83-20.57-2.06-8.15-1.49-15.82,1.48-20.01,1.42-2,3.34-3.17,5.54-3.37,6.72-.61,14.41,8.41,17.48,20.54h0c2.06,8.15,1.49,15.82-1.48,20.01-1.42,2-3.34,3.17-5.54,3.37-.21.02-.43.03-.65.03ZM16.95,69.16c-.1,0-.21,0-.31.01-1.03.09-1.89.65-2.64,1.7-2.28,3.22-2.62,9.78-.87,16.72,2.73,10.79,9.18,17.92,13.24,17.53,1.03-.09,1.89-.65,2.64-1.7,2.28-3.22,2.62-9.78.87-16.72h0c-2.66-10.52-8.85-17.55-12.93-17.55Z"/>
      <path class="cls-5" d="M39.67,106.4c-1.26,0-2.55-.29-3.86-.88l1.63-3.65c.92.41,1.78.59,2.58.51,1.17-.1,2.14-.73,2.97-1.91,2.49-3.52,2.87-10.67.96-18.23-2.97-11.76-10.04-19.52-14.5-19.1-1.27.11-2.35.88-3.21,2.26l-3.39-2.12c1.54-2.47,3.7-3.9,6.25-4.13,7.17-.64,15.44,9.06,18.74,22.1,2.22,8.77,1.61,17.02-1.58,21.52-1.51,2.13-3.54,3.37-5.88,3.58-.24.02-.48.03-.72.03Z"/>
      <rect class="cls-4" x="16.07" y="62.57" width="17.64" height="4" transform="translate(-17.97 10.24) rotate(-17.19)"/>
      <path class="cls-5" d="M56.28,101.61l-.36-3.98c1.17-.1,2.14-.73,2.97-1.91,2.49-3.52,2.87-10.67.96-18.23-2.9-11.46-9.68-19.12-14.16-19.12-.06,0-.11,0-.16,0l-16.38,4.81-1.13-3.84,16.97-4.94c7.2-.65,15.44,9.06,18.74,22.1,2.22,8.77,1.61,17.02-1.58,21.52-1.51,2.13-3.54,3.37-5.88,3.58Z"/>
      <path class="cls-5" d="M61.73,97.84l-1.23-3.8,10.95-3.55c4.29-3.12,5.2-12.62,2.03-21.84-2.23-6.5-6.88-13.25-13.21-12.94l-11.04,3.42-1.18-3.82,11.49-3.55.22-.02c7.32-.55,14.01,5.43,17.51,15.62,3.35,9.75,3.11,22.02-3.82,26.61l-.23.15-11.49,3.72Z"/>
      <rect class="cls-3" x="42.04" y="99.44" width="16.15" height="4" transform="translate(-26.63 18.3) rotate(-16.42)"/>
      <rect class="cls-2" x="27.82" y="101.83" width="17.88" height="4" transform="translate(-30.21 16.38) rotate(-17.95)"/>
    </g>
    <rect class="cls-1" x="89.84" y="44.35" width="33.24" height="4" transform="translate(-9.33 37.69) rotate(-19.25)"/>
  </g>
</svg>