<?xml version="1.0" encoding="UTF-8"?>
<svg id="Layer_1" data-name="Layer 1" xmlns="http://www.w3.org/2000/svg" xmlns:xlink="http://www.w3.org/1999/xlink" viewBox="0 0 140 140">
  <defs>
    <style>
      .cls-1 {
        fill: url(#linear-gradient);
      }

      .cls-2 {
        fill: #fff;
      }
    </style>
    <linearGradient id="linear-gradient" x1="28.2" y1="37.16" x2="92.11" y2="101.08" gradientUnits="userSpaceOnUse">
      <stop offset="0" stop-color="#f8b22e"/>
      <stop offset="1" stop-color="#446db4"/>
    </linearGradient>
  </defs>
  <path class="cls-2" d="M102.19,125.02c-.88,0-1.76-.21-2.57-.64l-15.13-7.99c-9.08-4.79-19.91-4.79-28.99,0l-15.13,7.99c-1.86.98-4.08.83-5.79-.41-1.71-1.24-2.54-3.3-2.18-5.38l2.92-16.86c1.75-10.11-1.6-20.42-8.96-27.57l-12.27-11.92c-1.51-1.47-2.05-3.63-1.4-5.63.65-2.01,2.35-3.44,4.44-3.74l16.93-2.43c10.16-1.46,18.92-7.83,23.45-17.04l7.54-15.35c.93-1.89,2.82-3.07,4.93-3.07s4,1.18,4.93,3.07l7.54,15.35c4.53,9.21,13.29,15.58,23.45,17.04l16.93,2.43c2.09.3,3.79,1.73,4.44,3.74.65,2.01.12,4.16-1.4,5.63l-12.27,11.92c-7.36,7.15-10.71,17.45-8.96,27.57l2.92,16.86c.36,2.08-.47,4.14-2.18,5.38-.96.7-2.09,1.06-3.22,1.06ZM70,19.99c-.2,0-.34.09-.43.27l-7.54,15.35c-5.26,10.7-15.44,18.1-27.24,19.79l-16.93,2.43c-.2.03-.33.14-.39.33-.06.19-.02.35.12.49l12.27,11.92c8.55,8.3,12.44,20.27,10.4,32.02l-2.92,16.86c-.03.19.03.35.19.47.16.12.33.13.5.04l15.13-7.99c10.54-5.56,23.13-5.56,33.67,0l15.13,7.99c.18.09.35.08.5-.04.16-.12.22-.27.19-.47l-2.92-16.86c-2.03-11.74,1.85-23.71,10.4-32.02l12.27-11.92c.14-.14.18-.3.12-.49-.06-.19-.19-.3-.39-.33l-16.93-2.43c-11.8-1.69-21.98-9.09-27.24-19.79l-7.54-15.35c-.09-.18-.23-.27-.43-.27Z"/>
  <path class="cls-1" d="M102.19,125.02c-.88,0-1.76-.21-2.57-.64l-15.13-7.99c-9.08-4.79-19.91-4.79-28.99,0l-15.13,7.99c-1.86.98-4.08.83-5.79-.41-1.71-1.24-2.54-3.3-2.18-5.38l2.92-16.86c1.75-10.11-1.6-20.42-8.96-27.57l-12.27-11.92c-1.51-1.47-2.05-3.63-1.4-5.63.65-2.01,2.35-3.44,4.44-3.74l16.93-2.43c10.16-1.46,18.92-7.83,23.45-17.04l7.54-15.35c.93-1.89,2.82-3.07,4.93-3.07s4,1.18,4.93,3.07l7.54,15.35c4.53,9.21,13.29,15.58,23.45,17.04l16.93,2.43c2.09.3,3.79,1.73,4.44,3.74.65,2.01.12,4.16-1.4,5.63l-12.27,11.92c-7.36,7.15-10.71,17.45-8.96,27.57l2.92,16.86c.36,2.08-.47,4.14-2.18,5.38-.96.7-2.09,1.06-3.22,1.06ZM70,19.99c-.2,0-.34.09-.43.27l-7.54,15.35c-5.26,10.7-15.44,18.1-27.24,19.79l-16.93,2.43c-.2.03-.33.14-.39.33-.06.19-.02.35.12.49l12.27,11.92c8.55,8.3,12.44,20.27,10.4,32.02l-2.92,16.86c-.03.19.03.35.19.47.16.12.33.13.5.04l15.13-7.99c10.54-5.56,23.13-5.56,33.67,0l15.13,7.99c.18.09.35.08.5-.04.16-.12.22-.27.19-.47l-2.92-16.86c-2.03-11.74,1.85-23.71,10.4-32.02l12.27-11.92c.14-.14.18-.3.12-.49-.06-.19-.19-.3-.39-.33l-16.93-2.43c-11.8-1.69-21.98-9.09-27.24-19.79l-7.54-15.35c-.09-.18-.23-.27-.43-.27Z"/>
</svg>