<?xml version="1.0" encoding="UTF-8"?>
<svg id="Layer_1" data-name="Layer 1" xmlns="http://www.w3.org/2000/svg" viewBox="0 0 200 65.86">
  <defs>
    <style>
      .cls-1 {
        fill: #446db5;
      }

      .cls-2 {
        fill: #3b429a;
      }
    </style>
  </defs>
  <path class="cls-1" d="M67.34,19.09c0-2.85.22-4.94.65-6.27.43-1.33.92-2.3,1.46-2.91,1.19-1.35,2.93-2.02,5.23-2.02s3.95.57,4.96,1.71c1,1.14,1.61,2.84,1.84,5.09.09.96.14,2.11.15,3.45v2.28h-4.43v-2.9c0-2.05-.08-3.39-.24-4.02-.58-.94-1.29-1.52-2.11-1.76-1.43,0-2.32.72-2.65,2.15-.22.91-.33,2.16-.33,3.75v14.01c0,2.25.17,3.83.52,4.73.34.9,1,1.35,1.99,1.35s1.7-.32,2.15-.95c.45-.64.68-2.31.68-5.04v-3.18h4.43v2.13c0,4.49-.59,7.43-1.78,8.83-1.19,1.39-2.99,2.09-5.42,2.09-3.83,0-6.08-2.05-6.74-6.15-.23-1.51-.35-3.29-.35-5.36v-11.02Z"/>
  <path class="cls-1" d="M84.9,18.67c0-5.34,1.23-8.67,3.69-9.99,1-.53,2.15-.79,3.47-.79,3.44,0,5.63,1.38,6.59,4.15.58,1.74.88,3.95.88,6.63v11.66c0,4.63-.62,7.66-1.87,9.11-1.24,1.45-3.04,2.17-5.4,2.17-3.44,0-5.63-1.46-6.56-4.39-.53-1.68-.79-3.98-.79-6.89v-11.66ZM95,17.77c0-3.13-.45-5.03-1.34-5.71-.37-.28-.84-.42-1.43-.42-1.19,0-1.95.53-2.29,1.6-.34,1.07-.52,2.58-.52,4.52v13.81c0,3.23.45,5.19,1.36,5.86.36.28.82.42,1.36.42h.09c1.16,0,1.91-.55,2.25-1.63.34-1.09.51-2.64.51-4.64v-13.81Z"/>
  <g>
    <path class="cls-2" d="M110.47,41.61c-1.6,0-2.88-.27-3.85-.81s-1.71-1.32-2.22-2.34c-.5-1.02-.85-2.23-1.02-3.64s-.26-2.98-.26-4.71v-11.02c0-2.19.18-4.13.55-5.82.37-1.68,1.08-3,2.15-3.95,1.07-.95,2.66-1.43,4.76-1.43,1.46,0,2.65.24,3.55.72s1.59,1.18,2.06,2.09c.48.91.8,1.99.97,3.25.17,1.26.25,2.66.25,4.19v2.28h-4.43v-2.9c0-1.26-.04-2.32-.12-3.17-.08-.86-.29-1.5-.63-1.94s-.9-.66-1.69-.66c-.83,0-1.46.24-1.87.71-.41.48-.68,1.16-.82,2.04-.14.89-.21,1.94-.21,3.15v14.01c0,1.36.06,2.49.18,3.39.12.9.37,1.57.77,2.02s1,.67,1.82.67,1.36-.24,1.72-.71c.36-.48.59-1.16.69-2.06.1-.9.15-1.97.15-3.22v-3.18h4.43v2.13c0,1.62-.08,3.1-.24,4.43-.16,1.33-.48,2.48-.95,3.45s-1.17,1.71-2.1,2.24c-.92.53-2.14.79-3.64.79Z"/>
    <path class="cls-2" d="M121.19,41.22V8.29h4.52v3.67c.38-1.27,1.04-2.27,1.99-2.99.94-.72,2.15-1.08,3.61-1.08.03,0,.05.19.05.58,0,.39.01.83.01,1.33v1.91c-.7,0-1.4.08-2.11.25-.7.17-1.36.45-1.98.86-.61.4-1.14.95-1.58,1.64v26.76h-4.52Z"/>
  </g>
  <g>
    <path class="cls-2" d="M140.49,41.61c-1.58,0-2.85-.27-3.81-.82-.96-.55-1.69-1.33-2.18-2.34-.5-1.01-.83-2.22-1-3.63-.17-1.41-.25-2.97-.25-4.69v-11.63c0-1.55.11-2.97.33-4.27.22-1.3.6-2.41,1.14-3.36.54-.94,1.3-1.68,2.26-2.2.97-.52,2.2-.78,3.69-.78s2.72.26,3.64.79c.92.53,1.62,1.27,2.1,2.23.48.96.79,2.1.95,3.42.16,1.32.24,2.78.24,4.36v6.21h-9.83v6.56c0,2.08.14,3.66.43,4.75.29,1.09,1.06,1.64,2.34,1.64.83,0,1.43-.26,1.79-.78.36-.52.58-1.25.66-2.2.08-.94.12-2.06.12-3.35v-2.66h4.41v1.41c0,1.71-.07,3.26-.21,4.65-.14,1.39-.44,2.58-.89,3.58-.45,1-1.15,1.76-2.1,2.29-.94.53-2.22.8-3.83.8ZM137.74,21.86h5.36v-4.19c0-1.32-.04-2.43-.13-3.33s-.3-1.58-.64-2.04c-.34-.46-.89-.69-1.67-.69-.86,0-1.5.26-1.92.79-.42.53-.69,1.26-.81,2.18-.12.93-.19,2.01-.19,3.24v4.04Z"/>
    <path class="cls-2" d="M156.18,41.5c-1.99,0-3.42-.77-4.3-2.32-.88-1.54-1.32-3.68-1.34-6.42v-3.2c0-1.45.25-2.65.75-3.61.5-.96,1.2-1.76,2.11-2.4.91-.64,1.98-1.23,3.2-1.75,1.23-.52,2.58-1.07,4.04-1.66v-2.55c0-1.4-.04-2.54-.13-3.41-.09-.87-.31-1.51-.67-1.92-.36-.41-.93-.61-1.72-.61s-1.36.21-1.75.61c-.39.41-.64,1.05-.76,1.93-.12.88-.18,2.02-.18,3.42v1.14h-4.48v-.94c0-1.4.09-2.71.26-3.92s.51-2.26,1.01-3.15c.5-.89,1.23-1.59,2.18-2.1s2.22-.76,3.79-.76,2.7.24,3.61.71c.91.48,1.62,1.17,2.11,2.1.49.92.82,2.06,1,3.41.18,1.35.26,2.92.26,4.69v22.41h-4.52v-2.85c-.13.44-.39.9-.77,1.39-.38.49-.88.9-1.49,1.24-.61.34-1.35.51-2.22.51ZM157.46,37.86c.79,0,1.47-.25,2.04-.76.57-.51.95-1.01,1.14-1.5v-12.53c-1.13.5-2.05.95-2.78,1.35s-1.29.82-1.69,1.26c-.4.44-.68.97-.85,1.58-.16.62-.24,1.39-.24,2.33v3.05c0,1.86.16,3.19.48,4.01.32.81.95,1.22,1.89,1.22Z"/>
  </g>
  <path class="cls-2" d="M175.8,41.41c-1.4,0-2.47-.17-3.18-.51-.72-.34-1.2-.88-1.45-1.62-.25-.75-.37-1.73-.37-2.96V11.89h-3.01v-3.34h3.01V2.58h4.5v5.97h3.56v3.34h-3.56v24.04c0,.56.07.97.22,1.24.15.27.48.45.99.54s1.31.13,2.39.13v3.58h-3.1Z"/>
  <path class="cls-2" d="M188.5,41.61c-1.58,0-2.85-.27-3.81-.82-.96-.55-1.69-1.33-2.18-2.34-.5-1.01-.83-2.22-1-3.63-.17-1.41-.25-2.97-.25-4.69v-11.63c0-1.55.11-2.97.33-4.27.22-1.3.6-2.41,1.14-3.36.54-.94,1.3-1.68,2.26-2.2.97-.52,2.2-.78,3.69-.78s2.72.26,3.64.79c.92.53,1.62,1.27,2.1,2.23.48.96.79,2.1.95,3.42.16,1.32.24,2.78.24,4.36v6.21h-9.83v6.56c0,2.08.14,3.66.43,4.75.29,1.09,1.06,1.64,2.34,1.64.83,0,1.43-.26,1.79-.78.36-.52.58-1.25.66-2.2.08-.94.12-2.06.12-3.35v-2.66h4.41v1.41c0,1.71-.07,3.26-.21,4.65-.14,1.39-.44,2.58-.89,3.58-.45,1-1.15,1.76-2.1,2.29-.94.53-2.22.8-3.83.8ZM185.76,21.86h5.36v-4.19c0-1.32-.04-2.43-.13-3.33s-.3-1.58-.64-2.04c-.34-.46-.89-.69-1.67-.69-.86,0-1.5.26-1.92.79-.42.53-.69,1.26-.81,2.18-.12.93-.19,2.01-.19,3.24v4.04Z"/>
  <path class="cls-2" d="M103.12,30.11c0,2.06.12,3.85.35,5.35.66,4.1,2.9,6.15,6.74,6.15,2.43,0,4.24-.7,5.42-2.09,1.19-1.39,1.78-4.33,1.78-8.83v-2.13h-4.44v3.19c0,2.72-.22,4.4-.68,5.04-.46.64-1.17.95-2.15.95s-1.64-.45-1.99-1.35c-.34-.9-.51-2.48-.51-4.73v-14.01c0-1.59.11-2.85.33-3.75.34-1.43,1.22-2.15,2.66-2.15.82.23,1.52.82,2.11,1.76.16.63.24,1.97.24,4.02v2.9h4.44v-2.28c-.02-1.33-.07-2.48-.15-3.45-.23-2.25-.85-3.95-1.84-5.09-1.01-1.14-2.66-1.71-4.96-1.71s-4.04.67-5.23,2.02c-.54.61-1.03,1.58-1.46,2.91-.43,1.32-.65,3.41-.65,6.27v11.02Z"/>
  <path class="cls-2" d="M127.68,8.96c-.96.71-1.63,1.71-2.01,2.99v-3.67h-4.52v32.93h4.52V14.46c1.14-1.83,3.03-2.75,5.67-2.75l.02-.97c0-1.9-.03-2.85-.09-2.85-1.43,0-2.63.36-3.59,1.06"/>
  <path class="cls-2" d="M142.99,21.85h-5.36v-4.04c0-1.93.18-3.45.53-4.55.35-1.1,1.19-1.66,2.5-1.66.69,0,1.16.18,1.43.55.26.36.48.79.65,1.27.17.48.25,1.89.25,4.23v4.19ZM133.13,30.13c0,2.99.2,5.15.59,6.5.4,1.34.85,2.32,1.37,2.94.52.61,1.22,1.11,2.11,1.48.89.37,2.07.56,3.53.56s2.7-.31,3.7-.93c1-.62,1.74-1.63,2.23-3.04.49-1.41.74-3.86.74-7.35v-1.41h-4.41v2.66c0,.66,0,1.47-.02,2.43-.02.96-.19,1.85-.52,2.67-.33.82-.98,1.23-1.96,1.23s-1.7-.35-2.15-1.05c-.46-.7-.68-2.48-.68-5.33v-6.56h9.83v-6.21c0-2.74-.23-4.91-.7-6.52-.85-2.85-2.93-4.28-6.24-4.28-2.28,0-4.01.64-5.18,1.93-1.49,1.63-2.24,4.52-2.24,8.67v11.63Z"/>
  <path class="cls-2" d="M151.4,18.76h4.48v-1.14c0-2.25.17-3.81.51-4.68.34-.86,1-1.29,1.98-1.29s1.69.28,2.1.85c.41.57.61,2.27.61,5.09v2.55c-4.67,1.71-7.52,3.24-8.55,4.58-1.03,1.34-1.55,2.95-1.55,4.84v3.2c.03,5.83,1.91,8.74,5.64,8.74,1.17,0,2.15-.33,2.94-.98.79-.65,1.3-1.37,1.54-2.16v2.85h4.52v-22.41c0-1.54-.05-2.83-.15-3.89-.23-2.46-.87-4.25-1.9-5.36-1.03-1.11-2.7-1.67-4.99-1.67s-4.07.66-5.31,1.98c-1.24,1.32-1.87,3.96-1.87,7.95v.94ZM161.08,35.59c-.22.56-.62,1.07-1.21,1.55s-1.29.71-2.11.71-1.4-.39-1.73-1.17c-.34-.78-.51-2.13-.51-4.05v-3.05c0-1.39.16-2.39.47-3,.32-.61.78-1.14,1.39-1.59.61-.45,1.84-1.1,3.69-1.93v12.53Z"/>
  <path class="cls-2" d="M170.76,8.55h-3.01v3.34h3.01v24.43c0,1.89.32,3.21.94,3.96.63.75,1.98,1.13,4.06,1.13h3.1v-3.58c-1.61,0-2.61-.11-3.01-.32-.4-.21-.59-.74-.59-1.59V11.89h3.56v-3.34h-3.56V2.58h-4.5v5.97Z"/>
  <path class="cls-2" d="M190.96,21.85h-5.36v-4.04c0-1.93.18-3.45.53-4.55.35-1.1,1.19-1.66,2.5-1.66.69,0,1.16.18,1.43.55.26.36.48.79.65,1.27.17.48.25,1.89.25,4.23v4.19ZM181.1,30.13c0,2.99.2,5.15.59,6.5.4,1.34.85,2.32,1.37,2.94.52.61,1.22,1.11,2.11,1.48.89.37,2.07.56,3.53.56s2.7-.31,3.7-.93c1-.62,1.74-1.63,2.23-3.04.49-1.41.74-3.86.74-7.35v-1.41h-4.41v2.66c0,.66,0,1.47-.02,2.43-.02.96-.19,1.85-.52,2.67-.33.82-.98,1.23-1.96,1.23s-1.7-.35-2.15-1.05c-.46-.7-.68-2.48-.68-5.33v-6.56h9.83v-6.21c0-2.74-.23-4.91-.7-6.52-.85-2.85-2.93-4.28-6.24-4.28-2.28,0-4.01.64-5.18,1.93-1.49,1.63-2.24,4.52-2.24,8.67v11.63Z"/>
  <g>
    <path class="cls-2" d="M67.38,51.19c0-1.03.08-1.79.26-2.28.17-.49.36-.84.56-1.07.44-.5,1.08-.75,1.92-.75,1.18,0,1.94.52,2.28,1.56.2.6.29,1.39.29,2.37v1.51h-1.57v-1.52c0-.87-.05-1.46-.14-1.77-.09-.31-.21-.51-.34-.61-.13-.1-.31-.15-.51-.15-.43,0-.72.2-.89.61-.16.41-.25,1.04-.25,1.92v5.91c0,1.03.07,1.76.22,2.17.15.41.43.62.85.62s.7-.21.85-.62c.14-.41.21-1.14.21-2.17v-1.51h1.59v1.5c0,1.43-.19,2.48-.58,3.16s-1.07,1.01-2.04,1.01-1.66-.35-2.08-1.04-.62-1.74-.62-3.14v-5.68Z"/>
    <path class="cls-2" d="M84.69,47.25h1.93l2.26,13.64h-1.51l-.39-2.6h-2.47l-.36,2.6h-1.53l2.07-13.64ZM84.68,56.99h2.09l-1.08-7.21h-.02l-.99,7.21Z"/>
    <path class="cls-2" d="M99.07,47.25h2.86c.81,0,1.39.17,1.75.5.36.34.57.91.64,1.71.03.33.05.85.05,1.55s-.09,1.29-.27,1.76c-.18.47-.51.78-.97.92.34.06.6.24.77.54.18.3.3.78.37,1.44.07.66.11,1.64.11,2.94s.04,2.06.12,2.27h-1.6c-.08-.17-.12-1.7-.12-4.6,0-.98-.1-1.54-.29-1.7-.19-.16-.48-.24-.87-.24l-.95-.05v6.59h-1.6v-13.64ZM102.79,50.59c0-1.05-.09-1.66-.28-1.82-.19-.17-.46-.25-.82-.25h-1.01v4.6h1.02c.31,0,.54-.06.68-.18.14-.12.25-.35.31-.68.06-.34.09-.86.09-1.58v-.09Z"/>
    <rect class="cls-2" x="115.16" y="47.25" width="1.6" height="13.64"/>
    <path class="cls-2" d="M127.81,47.25h2.46c1.03,0,1.73.23,2.1.7.37.47.56,1.26.57,2.37v.29c0,.8-.07,1.43-.22,1.89-.15.46-.42.79-.8,1,.84.34,1.25,1.44,1.25,3.28v.29c-.02,1.37-.22,2.34-.62,2.94-.4.59-1.09.89-2.07.89h-2.67v-13.64ZM131.36,50.34v-.05c0-.91-.16-1.45-.47-1.61-.16-.08-.38-.12-.67-.12h-.79v4.39h.91c.31,0,.53-.05.66-.15.13-.1.23-.3.28-.6.06-.3.08-.79.08-1.47v-.38ZM131.56,56.55c0-.88-.07-1.49-.22-1.84-.14-.35-.43-.53-.85-.53h-1.07v5.42h.99c.45,0,.76-.18.92-.54.16-.36.24-1.04.24-2.04v-.47Z"/>
    <path class="cls-2" d="M143.77,47.25h2.46c1.03,0,1.73.23,2.1.7.37.47.56,1.26.57,2.37v.29c0,.8-.07,1.43-.22,1.89-.15.46-.42.79-.8,1,.84.34,1.25,1.44,1.25,3.28v.29c-.02,1.37-.22,2.34-.62,2.94-.4.59-1.09.89-2.07.89h-2.67v-13.64ZM147.31,50.34v-.05c0-.91-.16-1.45-.47-1.61-.16-.08-.38-.12-.67-.12h-.79v4.39h.91c.31,0,.53-.05.66-.15.13-.1.23-.3.28-.6.06-.3.08-.79.08-1.47v-.38ZM147.51,56.55c0-.88-.07-1.49-.22-1.84-.14-.35-.43-.53-.85-.53h-1.07v5.42h.99c.45,0,.76-.18.92-.54.16-.36.24-1.04.24-2.04v-.47Z"/>
    <polygon class="cls-2" points="159.6 47.25 163.67 47.25 163.67 48.58 161.2 48.58 161.2 53.25 163.54 53.25 163.54 54.58 161.2 54.58 161.2 59.56 163.7 59.56 163.7 60.89 159.6 60.89 159.6 47.25"/>
    <path class="cls-2" d="M175.61,47.25h1.93l2.26,13.64h-1.51l-.39-2.6h-2.47l-.36,2.6h-1.53l2.07-13.64ZM175.6,56.99h2.09l-1.08-7.21h-.02l-.99,7.21Z"/>
    <polygon class="cls-2" points="194.21 47.25 195.62 47.25 195.62 60.89 194.45 60.89 191.38 51.53 191.48 54.97 191.48 60.89 190 60.89 190 47.25 191.21 47.25 194.37 56.54 194.21 52.59 194.21 47.25"/>
  </g>
  <path class="cls-1" d="M43.1,29.36c-3.95,0-7.14-3.2-7.14-7.14s3.2-7.14,7.14-7.14,7.14,3.2,7.14,7.14-3.2,7.14-7.14,7.14"/>
  <path class="cls-1" d="M16.84,55.72c-3.95,0-7.14-3.2-7.14-7.14s3.2-7.14,7.14-7.14,7.14,3.2,7.14,7.14-3.2,7.14-7.14,7.14"/>
  <path class="cls-2" d="M45.21,36.1c3.42,0,6.84,0,10.26,0,1.9,0,2.4.63,2.04,2.52-2.21,11.48-10.94,20.18-22.42,22.34-1.77.33-2.4-.16-2.41-1.89-.01-3.96-.29-3.42,3.3-4.4,5.52-1.52,9.71-4.79,12.76-9.55.38-.6.64-1.53.47-2.18-.26-1.01-1.31-1-2.23-1-4.05.01-8.11.01-12.16,0-1.77,0-2.13-.38-2.14-2.17q-.02-3.67,3.67-3.67c2.96,0,5.91,0,8.87,0h0Z"/>
  <path class="cls-2" d="M16.78,32.9c-3.42,0-6.84,0-10.26,0-1.9,0-2.4-.63-2.04-2.52,2.21-11.48,10.94-20.18,22.42-22.34,1.77-.33,2.4.16,2.41,1.89.01,3.96.29,3.42-3.3,4.4-5.52,1.52-9.71,4.79-12.76,9.55-.39.6-.64,1.53-.47,2.18.26,1.01,1.31,1,2.23,1,4.05-.01,8.11-.01,12.16,0,1.77,0,2.13.38,2.14,2.16q.02,3.67-3.67,3.67h-8.87Z"/>
</svg>